P2
# Created by GIMP version 2.10.24 PNM plug-in
16 16
255
255
245
236
255
255
255
188
255
203
204
255
255
255
254
247
255
255
137
83
155
255
255
188
255
255
255
230
156
120
115
214
255
255
255
154
70
255
255
255
255
255
255
83
3
11
148
255
255
255
255
165
90
245
255
255
255
180
32
3
15
245
255
255
255
255
199
92
117
255
255
255
236
33
2
31
230
255
213
183
255
255
95
93
255
255
255
221
79
1
36
206
255
255
115
165
255
255
123
69
230
255
245
92
7
5
204
255
255
255
113
131
255
255
255
245
255
255
148
25
0
12
255
255
255
255
142
4
211
255
255
255
255
183
11
0
0
140
255
255
255
230
142
5
211
255
255
245
144
1
0
28
2
0
111
255
255
179
148
230
255
255
230
125
10
0
73
192
255
2
0
169
255
255
245
255
255
191
86
9
0
104
220
255
255
209
2
20
188
255
255
244
244
85
0
32
186
191
230
255
255
255
185
0
101
255
255
203
203
184
236
245
255
255
255
255
255
255
255
167
128
221
255
255
255
232
239
228
236
191
255
255
255
255
255
230
161
206
255
255
255
122
0
0
0
0
0
2
55
255
255
255
255
255
255
255
1
