P2
# Created by GIMP version 2.10.24 PNM plug-in
4 4
255
0
255
0
255
255
235
252
255
255
163
235
255
255
255
255
0
